<?xml version="1.0" standalone="no"?>
<!DOCTYPE svg PUBLIC "-//W3C//DTD SVG 20010904//EN"
 "http://www.w3.org/TR/2001/REC-SVG-20010904/DTD/svg10.dtd">
<svg version="1.0" xmlns="http://www.w3.org/2000/svg"
 width="490.000000pt" height="509.000000pt" viewBox="0 0 490.000000 509.000000"
 preserveAspectRatio="xMidYMid meet">

<g transform="translate(0.000000,509.000000) scale(0.100000,-0.100000)"
fill="#000000" stroke="none">
<path d="M1300 5023 c-307 -34 -551 -144 -787 -352 -241 -213 -388 -473 -455
-804 l-23 -112 0 -1195 c0 -1187 0 -1196 22 -1315 54 -296 189 -559 393 -765
220 -222 479 -362 773 -418 84 -15 189 -17 1212 -17 1039 0 1128 1 1225 18
298 52 555 189 781 417 157 158 271 345 343 560 69 209 69 198 73 1350 5 1307
-1 1448 -77 1680 -71 215 -238 460 -420 617 -190 164 -378 258 -630 314 l-105
24 -1145 1 c-630 1 -1161 -1 -1180 -3z m2440 -117 c96 -23 275 -96 362 -147
312 -184 544 -505 631 -874 21 -89 21 -108 25 -1280 2 -811 0 -1220 -8 -1283
-52 -457 -355 -868 -784 -1067 -103 -47 -206 -77 -348 -100 -84 -13 -253 -15
-1175 -15 -1025 0 -1084 1 -1193 20 -191 32 -345 91 -500 192 -79 51 -109 75
-217 175 -166 153 -313 418 -381 686 -13 54 -16 223 -19 1277 -4 1082 -2 1226
12 1315 77 475 397 877 833 1045 210 81 161 79 1502 76 1100 -2 1190 -3 1260
-20z"/>
<path d="M2568 4316 c-48 -25 -163 -116 -182 -144 -10 -15 -40 -42 -66 -61
-53 -39 -59 -49 -318 -582 -145 -297 -171 -339 -212 -339 -8 0 -42 -22 -75
-50 -33 -27 -66 -50 -73 -50 -8 0 -25 9 -39 20 -14 11 -33 20 -43 20 -9 0 -50
-36 -89 -80 -40 -44 -78 -80 -85 -80 -7 0 -35 28 -62 63 -26 34 -65 77 -86 95
-21 19 -38 40 -38 47 0 21 -50 75 -70 75 -10 0 -28 15 -39 34 -12 18 -35 39
-51 46 -47 20 -121 -22 -216 -123 -93 -99 -112 -129 -146 -232 -70 -216 -232
-716 -273 -845 -51 -159 -54 -166 -114 -227 -33 -34 -41 -50 -41 -78 l0 -36
2195 2 2195 2 0 678 c0 576 -2 680 -14 692 -8 8 -75 53 -149 101 -127 82 -136
86 -189 86 -50 0 -92 11 -153 40 -11 6 -75 30 -143 55 -113 41 -131 45 -216
45 -88 0 -95 2 -132 30 -105 80 -122 89 -229 117 l-110 29 -66 99 c-36 55 -77
106 -90 115 -120 74 -147 101 -223 223 -89 143 -93 148 -126 170 -33 21 -145
57 -179 57 -14 0 -38 -6 -53 -14z m129 -77 c73 -27 84 -37 121 -107 31 -59 34
-112 6 -112 -8 0 -14 -5 -14 -11 0 -5 -4 -7 -10 -4 -6 3 -7 -1 -4 -9 12 -31
-30 -16 -73 26 -37 36 -43 39 -49 24 -4 -10 -2 -46 4 -80 6 -33 14 -92 18
-131 l6 -70 -31 33 c-17 19 -37 32 -44 29 -7 -2 -28 -41 -46 -86 -34 -83 -49
-172 -50 -299 -1 -58 -5 -71 -58 -160 l-57 -97 -1 -150 c-1 -135 -3 -155 -24
-198 -25 -50 -39 -55 -57 -19 -8 17 -6 39 9 97 11 41 17 78 14 81 -9 9 -37
-15 -37 -32 0 -8 -4 -14 -8 -14 -4 0 -16 -14 -26 -31 -10 -17 -20 -28 -22 -26
-3 3 4 20 16 38 27 46 80 156 80 169 0 5 -2 10 -5 10 -14 0 -91 -56 -117 -83
-15 -17 -28 -27 -28 -22 0 6 25 62 55 125 30 63 51 116 46 118 -6 2 -27 -13
-48 -33 -71 -68 -197 -116 -179 -69 3 8 2 13 -2 13 -4 -1 -14 -1 -22 0 -13 1
-13 2 0 12 12 8 10 9 -7 4 -12 -3 -24 -1 -28 5 -3 5 -15 10 -26 10 -11 0 -33
7 -49 15 l-29 15 38 82 c42 90 216 451 271 561 19 37 37 67 40 67 4 0 12 -69
20 -152 7 -84 16 -159 19 -165 4 -8 42 50 89 135 l82 148 -6 130 -6 129 28 26
c44 41 105 79 125 79 10 0 44 -10 76 -21z m37 -548 c-5 -6 -33 31 -33 44 -1 6
8 -1 19 -15 10 -14 17 -27 14 -29z m151 -361 c17 -18 26 -34 20 -38 -12 -9
-16 -44 -4 -36 5 3 9 -25 9 -61 0 -52 -3 -63 -12 -55 -7 6 -20 16 -30 23 -12
9 -17 33 -20 105 -2 50 -1 92 2 92 3 0 19 -14 35 -30z m-1879 -126 c-3 -31
-10 -64 -15 -73 -5 -9 -12 -88 -16 -176 -3 -88 -10 -184 -16 -214 -8 -49 -31
-91 -49 -91 -6 0 -4 106 4 207 3 32 0 55 -7 62 -15 12 -32 -25 -75 -159 -23
-71 -31 -87 -31 -62 -1 37 -30 46 -32 10 -1 -18 -2 -19 -6 -5 -2 9 -9 15 -14
12 -5 -4 -9 1 -9 10 0 9 -4 14 -9 11 -5 -4 -7 2 -4 13 3 10 -1 22 -8 26 -8 6
-10 4 -4 -6 6 -11 5 -12 -6 -1 -11 10 -8 28 20 110 46 138 43 131 50 102 7
-25 7 -25 19 8 11 31 10 33 -9 27 -19 -6 -20 -5 -8 17 6 12 18 27 25 31 8 4
14 13 14 19 0 6 8 18 18 27 9 9 33 36 52 61 42 55 82 87 114 89 5 1 6 -24 2
-55z m2876 39 c33 -40 63 -138 68 -228 7 -117 6 -116 189 -102 100 7 142 7
166 -2 25 -9 39 -9 58 0 21 10 31 8 59 -8 34 -20 44 -46 33 -90 -4 -19 -11
-24 -25 -20 -16 4 -20 0 -20 -22 0 -15 -5 -53 -11 -83 -10 -51 -9 -60 10 -100
21 -41 21 -47 9 -128 -13 -82 -14 -85 -41 -88 -26 -3 -27 -2 -18 17 18 33 14
132 -6 147 -23 17 -33 17 -33 2 0 -30 -73 -157 -94 -162 -25 -7 -47 11 -24 19
9 4 26 33 38 65 21 56 21 59 4 91 -33 65 -55 91 -73 83 -9 -4 -41 -10 -71 -13
l-55 -6 -7 -110 c-9 -129 -11 -135 -39 -135 -18 0 -20 4 -13 28 15 52 -8 221
-31 229 -6 2 -27 -10 -47 -27 -34 -28 -36 -33 -27 -63 5 -17 18 -44 29 -59 24
-32 25 -48 6 -48 -25 0 -96 113 -96 153 0 7 14 33 31 56 l30 43 -27 39 c-44
64 -55 169 -30 287 14 70 12 74 -43 76 -29 1 -37 5 -39 23 -3 18 6 27 42 44
47 22 54 35 35 71 -18 33 1 35 28 3 23 -27 24 -23 7 20 -8 21 10 19 28 -2z
m-2364 -276 c-12 -39 -15 -42 -37 -28 -10 7 -8 15 15 40 15 17 29 30 30 28 2
-2 -2 -20 -8 -40z m1680 -73 c0 -18 -3 -22 -9 -13 -7 11 -11 10 -24 -6 -13
-15 -12 -12 1 13 22 39 32 41 32 6z m-1089 -139 c22 -4 41 -10 41 -15 0 -19
-78 -60 -116 -60 l-39 0 29 15 c15 8 37 15 47 15 25 0 24 8 -3 31 -28 22 -38
24 -38 4 0 -19 -54 -32 -117 -27 -53 4 -68 15 -35 25 9 3 42 14 72 25 48 18
59 19 86 7 17 -7 50 -16 73 -20z m-1418 -18 c-10 -9 -11 -8 -5 6 3 10 9 15 12
12 3 -3 0 -11 -7 -18z m1759 -53 c96 -20 195 -40 219 -45 25 -5 59 -14 75 -19
17 -5 87 -23 154 -40 124 -31 139 -36 220 -71 43 -20 57 -49 23 -49 -32 0 -51
11 -51 30 0 23 -24 32 -53 21 -35 -14 -77 -2 -77 21 0 13 -6 18 -17 16 -11 -2
-17 -12 -16 -25 3 -22 -27 -32 -75 -25 -19 3 -23 8 -18 27 6 24 -12 35 -62 35
-16 0 -26 7 -29 21 -5 18 -11 19 -55 15 -36 -4 -50 -2 -54 8 -6 17 -48 26
-134 30 -36 2 -75 8 -85 14 -31 17 -126 45 -132 38 -3 -3 3 -8 13 -12 40 -13
127 -51 234 -103 89 -43 100 -46 177 -46 91 0 116 -18 33 -23 -56 -3 -59 -10
-31 -65 10 -20 22 -57 25 -82 6 -37 12 -46 33 -51 28 -7 373 3 437 13 l38 6
-4 58 c-2 33 0 59 5 59 5 0 75 -32 154 -72 l145 -72 -53 -11 c-33 -7 -65 -7
-81 -2 -18 6 -40 5 -59 -2 -21 -7 -37 -7 -49 -1 -25 13 -56 13 -96 -2 -23 -8
-43 -8 -74 0 -33 8 -51 7 -83 -4 -40 -14 -85 -14 -120 1 -9 4 -38 4 -63 0 -29
-4 -50 -2 -59 5 -11 9 -11 3 1 -36 8 -26 12 -55 9 -65 -5 -14 5 -18 61 -24 40
-4 62 -10 54 -15 -7 -4 -9 -13 -6 -19 11 -18 26 -13 26 9 0 11 1 20 3 21 1 0
165 3 365 6 419 6 411 8 283 -78 -50 -32 -131 -42 -131 -15 0 18 15 23 89 32
34 3 61 11 61 15 0 13 -34 15 -85 4 -62 -14 -94 -15 -100 -6 -8 14 -82 14 -90
1 -4 -6 10 -10 34 -10 31 0 43 -5 51 -21 7 -11 10 -22 8 -24 -6 -6 -128 -9
-134 -2 -3 3 0 15 6 27 6 12 10 23 8 26 -7 6 -105 8 -237 4 l-124 -3 26 -22
c38 -30 34 -42 -19 -50 -42 -6 -49 -4 -98 34 -30 22 -69 44 -87 49 -26 7 -33
14 -32 30 4 30 -34 133 -58 158 -12 12 -22 34 -23 47 0 14 -4 23 -8 21 -4 -3
-10 12 -14 33 -7 42 14 29 -244 152 -47 22 -110 54 -140 71 -30 16 -59 31 -65
33 -16 7 45 65 63 61 9 -2 96 -20 192 -40z m-1140 0 c0 -22 -85 -29 -116 -9
-21 14 -28 15 -35 4 -4 -7 -4 -18 1 -24 4 -5 8 -14 7 -20 -1 -5 20 -13 47 -16
44 -5 76 -26 76 -50 0 -16 -69 -18 -120 -4 -30 9 -74 18 -97 22 -24 3 -43 10
-43 14 0 5 17 28 37 51 21 24 38 45 39 46 2 2 40 6 86 9 46 3 85 7 87 9 7 7
31 -18 31 -32z m586 21 c31 -8 58 -16 60 -18 9 -8 -10 -46 -25 -50 -11 -3 -9
-5 6 -6 22 -1 39 -32 28 -51 -5 -8 -82 -4 -93 6 -10 8 12 44 26 45 15 0 -101
38 -121 39 -4 0 -17 -16 -28 -35 -12 -19 -29 -35 -38 -35 -17 0 -67 48 -58 56
6 6 161 62 174 63 7 1 38 -6 69 -14z m1294 -60 c159 -18 216 -30 237 -50 19
-19 86 -31 91 -17 2 8 8 7 19 -3 8 -8 20 -15 26 -15 7 0 6 4 -3 10 -12 8 -11
10 6 10 11 0 25 -5 32 -12 8 -8 12 -8 12 -1 0 6 11 8 25 5 l25 -4 -25 -30
c-14 -16 -25 -36 -25 -43 0 -15 46 -51 94 -75 19 -9 31 -23 31 -35 0 -16 7
-20 30 -19 17 0 33 -4 37 -10 5 -8 13 -8 27 1 15 10 38 7 116 -13 130 -33 137
-37 73 -53 -84 -20 -89 -22 -83 -32 10 -15 -12 -10 -25 7 -8 8 -22 20 -32 25
-18 9 -18 8 -8 -10 6 -12 15 -21 20 -21 5 0 7 -6 4 -13 -3 -8 16 -33 43 -57
93 -85 114 -136 77 -189 -42 -59 -222 -105 -479 -121 -93 -6 -194 -15 -224
-21 -30 -5 -56 -7 -58 -6 -2 2 43 19 99 37 143 45 294 120 350 172 57 53 73
95 56 150 -22 74 -58 97 -478 303 -80 39 -209 95 -255 110 -75 25 -153 45
-173 45 -12 0 -23 3 -26 8 -2 4 46 2 107 -5 62 -6 177 -19 257 -28z m-1167 6
c17 -6 17 -8 4 -20 -13 -10 -20 -9 -41 4 -14 10 -26 19 -26 21 0 6 44 3 63 -5z
m-194 -20 c26 -17 4 -41 -36 -41 -21 0 -33 4 -27 8 6 4 13 15 17 25 7 19 24
22 46 8z m388 -20 c32 -16 104 -51 161 -77 56 -26 102 -51 102 -55 0 -16 -53
-70 -59 -60 -4 6 -38 24 -76 42 -38 17 -94 47 -125 67 -30 20 -70 41 -89 48
l-34 12 26 26 c14 14 28 26 31 26 3 0 32 -13 63 -29z m-1560 6 c-2 -6 3 -19
11 -27 14 -13 15 -12 10 1 -3 9 -2 22 3 30 6 10 9 4 9 -19 0 -33 -96 -242
-111 -242 -5 0 -9 -6 -9 -14 0 -8 -4 -17 -9 -21 -10 -5 -4 23 30 135 23 76 59
170 66 170 3 0 3 -6 0 -13z m978 -52 l53 -55 -89 0 -90 0 -15 36 c-8 20 -13
38 -10 41 5 6 77 32 89 33 4 0 32 -25 62 -55z m-451 -24 c44 -12 88 -21 98
-21 27 0 34 -28 12 -45 -26 -19 -51 -19 -174 5 -58 12 -116 23 -130 25 -14 2
-27 4 -29 4 -3 1 10 16 28 35 36 37 37 37 195 -3z m981 -31 c52 -27 118 -63
147 -80 29 -17 59 -34 67 -38 24 -13 23 -25 -4 -55 -23 -24 -53 -39 -41 -19 3
5 -25 26 -62 47 -37 21 -104 62 -149 92 -45 29 -87 53 -92 53 -6 0 -11 3 -11
7 0 10 32 43 42 43 5 0 51 -22 103 -50z m-302 -5 c70 -4 88 -10 159 -50 44
-25 82 -45 84 -45 3 0 53 -30 112 -67 l107 -68 -127 -3 c-130 -3 -138 -5 -118
-42 9 -17 29 -18 302 -20 265 -1 326 -6 306 -26 -3 -3 -75 -8 -160 -11 -84 -2
-159 -6 -166 -9 -10 -3 -8 -11 8 -34 l21 -30 182 0 182 -1 70 -64 70 -65 225
0 225 -1 -100 -30 c-160 -47 -363 -89 -434 -89 -55 0 -77 6 -131 33 -36 18
-90 40 -120 50 -30 9 -79 35 -109 57 -50 37 -57 40 -120 40 -59 0 -70 3 -91
25 -24 26 -90 36 -90 14 0 -11 80 -137 103 -162 7 -7 21 -23 31 -35 l19 -22
-85 0 c-83 0 -86 1 -92 24 -3 14 -22 60 -42 103 -20 43 -40 88 -45 99 -6 18
-21 24 -81 34 -108 18 -130 24 -126 35 2 6 19 8 38 6 65 -8 113 -6 117 6 5 13
-40 28 -109 38 -26 3 -50 10 -53 14 -2 5 -36 11 -75 15 -70 7 -96 19 -60 29
11 3 18 1 14 -4 -3 -5 -1 -9 5 -9 23 0 20 20 -4 26 -14 3 -25 11 -25 18 0 18
-60 87 -71 81 -5 -4 -6 2 -2 11 4 11 3 15 -5 10 -6 -3 -18 4 -27 16 -15 23
-15 23 22 30 21 4 61 7 89 7 28 1 53 4 57 7 3 4 0 19 -8 35 -20 38 -20 38 18
34 17 -2 67 -7 110 -10z m-1143 -40 c0 -8 -4 -15 -10 -15 -5 0 -7 7 -4 15 4 8
8 15 10 15 2 0 4 -7 4 -15z m320 -35 c93 -23 139 -38 123 -39 -7 -1 -13 -10
-13 -21 0 -25 -38 -27 -97 -6 -37 13 -104 24 -150 25 -16 1 -23 7 -23 21 0 11
5 20 11 20 6 0 17 7 26 16 9 8 23 12 32 9 9 -4 50 -15 91 -25z m1580 -35 c0
-21 -20 -19 -21 3 -1 13 -2 14 -5 2 -4 -11 -15 -14 -44 -12 -30 3 -36 7 -27
16 6 7 21 10 34 8 13 -2 23 1 23 7 0 9 5 9 20 1 11 -6 20 -17 20 -25z m-1276
-9 c31 -28 32 -36 7 -36 -11 0 -23 -5 -26 -10 -5 -8 -112 -4 -123 5 -1 1 2 14
7 28 9 22 17 26 58 30 26 2 49 4 50 5 1 1 13 -9 27 -22z m-424 -56 c25 -7 50
-17 55 -20 6 -4 34 -13 63 -20 45 -10 52 -15 52 -36 0 -39 -37 -50 -107 -31
-32 8 -87 23 -123 32 -36 10 -67 19 -69 21 -8 7 60 72 72 70 7 -2 32 -9 57
-16z m1728 -32 c3 -16 -7 -18 -107 -18 -61 0 -111 4 -111 8 0 26 29 33 120 30
81 -3 95 -6 98 -20z m1459 -4 c-3 -3 -12 -4 -19 -1 -8 3 -5 6 6 6 11 1 17 -2
13 -5z m-2712 -36 l15 -23 -112 -7 c-62 -4 -118 -5 -124 -3 -7 2 -9 15 -7 29
5 26 6 26 109 26 95 0 104 -2 119 -22z m2600 2 c3 -5 -3 -10 -14 -10 -12 0
-21 5 -21 10 0 6 6 10 14 10 8 0 18 -4 21 -10z m-360 -20 c3 -5 -1 -10 -9 -10
-9 0 -16 5 -16 10 0 6 4 10 9 10 6 0 13 -4 16 -10z m302 -16 c-3 -3 -12 -4
-19 -1 -8 3 -5 6 6 6 11 1 17 -2 13 -5z m-3094 -56 c31 -16 10 -25 -45 -20
-61 5 -62 6 -54 27 4 13 14 14 43 9 21 -4 46 -11 56 -16z m357 -42 c0 -27 -5
-35 -23 -40 -45 -11 -167 -19 -167 -10 0 4 17 25 37 46 34 35 41 38 95 38 l58
0 0 -34z m110 24 c0 -24 -34 -60 -56 -60 -20 0 -24 5 -24 28 0 16 3 32 7 35
10 11 73 8 73 -3z m263 3 c3 -5 -15 -66 -39 -138 -24 -71 -43 -138 -44 -147 0
-16 -11 -18 -90 -18 -65 0 -90 3 -90 13 0 11 36 84 116 234 15 29 35 54 43 56
28 8 100 7 104 0z m179 -5 c2 -7 2 -77 0 -155 l-4 -143 -55 0 -56 0 7 38 c3
20 13 73 21 117 8 44 14 94 15 111 0 17 3 34 7 37 11 12 61 8 65 -5z m1526
-75 c3 -22 -10 -29 -60 -32 -22 -1 -28 4 -28 19 0 40 83 52 88 13z m-123 -8
c0 -17 -8 -20 -57 -23 -52 -3 -58 -1 -58 17 0 15 8 21 33 24 61 8 82 3 82 -18z
m-2260 -4 c-15 -13 -199 -51 -251 -51 -37 0 -57 -8 -117 -49 -40 -27 -85 -63
-101 -80 -18 -19 -40 -31 -55 -31 -24 0 -22 3 24 51 103 104 165 153 209 160
63 10 301 10 291 0z m355 -6 c0 -3 -12 -23 -26 -45 -21 -31 -33 -40 -55 -40
-24 0 -29 5 -35 34 -3 19 -3 39 1 45 6 11 115 16 115 6z m-152 -47 l3 -38 -73
1 c-40 0 -81 3 -90 7 -16 6 -14 11 13 40 29 31 35 33 87 30 l57 -3 3 -37z
m851 10 c14 -44 41 -147 41 -158 0 -6 -20 -10 -45 -10 -49 0 -48 -2 -60 90 -3
25 -8 60 -11 78 -6 31 -5 32 29 32 31 0 37 -4 46 -32z m2464 1 c-3 -11 -12
-23 -19 -26 -8 -3 -14 -10 -15 -17 0 -6 -18 -26 -41 -43 -39 -32 -66 -43 -53
-23 3 6 13 10 22 10 10 0 13 6 9 16 -3 8 -2 12 4 9 14 -8 80 63 80 86 0 11 4
18 9 15 5 -3 7 -15 4 -27z m-3406 -73 c1 -1 0 -12 -3 -23 -5 -17 -16 -24 -50
-29 -24 -3 -47 -11 -50 -16 -4 -7 8 -8 35 -3 28 5 41 3 41 -4 0 -18 -22 -22
-105 -19 l-78 3 48 52 47 53 56 -6 c32 -4 58 -7 59 -8z m1378 -2 c39 -20 114
-77 115 -86 0 -5 -29 -8 -64 -8 l-63 0 -32 51 c-17 28 -31 52 -31 55 0 10 47
3 75 -12z m-1215 -1 c0 -3 -11 -26 -25 -50 -25 -42 -27 -43 -76 -43 -48 0 -50
1 -43 23 3 12 15 34 26 50 17 23 26 27 69 27 27 0 49 -3 49 -7z"/>
<path d="M2415 3610 c-3 -5 -1 -10 4 -10 6 0 11 5 11 10 0 6 -2 10 -4 10 -3 0
-8 -4 -11 -10z"/>
<path d="M2101 3373 c-10 -26 -10 -27 4 -9 8 11 15 23 15 28 0 15 -7 8 -19
-19z"/>
<path d="M976 3167 c3 -10 9 -15 12 -12 3 3 0 11 -7 18 -10 9 -11 8 -5 -6z"/>
<path d="M875 3130 c-3 -5 -1 -10 4 -10 6 0 11 5 11 10 0 6 -2 10 -4 10 -3 0
-8 -4 -11 -10z"/>
<path d="M850 3095 c-11 -13 -10 -14 4 -9 9 3 16 10 16 15 0 13 -6 11 -20 -6z"/>
<path d="M805 3050 c-3 -5 1 -10 10 -10 9 0 13 5 10 10 -3 6 -8 10 -10 10 -2
0 -7 -4 -10 -10z"/>
<path d="M746 2745 c4 -8 8 -15 10 -15 2 0 4 7 4 15 0 8 -4 15 -10 15 -5 0 -7
-7 -4 -15z"/>
<path d="M3698 2398 c5 -5 16 -8 23 -6 8 3 3 7 -10 11 -17 4 -21 3 -13 -5z"/>
<path d="M3970 2300 c-11 -7 -5 -8 20 -4 43 8 51 14 19 14 -13 0 -31 -5 -39
-10z"/>
<path d="M3442 1741 c2 -4 34 -34 71 -66 62 -52 73 -57 127 -62 33 -3 60 -2
60 2 0 4 -23 36 -52 71 l-51 64 -80 0 c-43 0 -77 -4 -75 -9z"/>
<path d="M940 1216 l0 -336 80 0 80 0 0 94 0 93 131 5 c119 5 136 8 187 35 79
40 115 95 120 185 5 79 -9 127 -51 174 -63 72 -86 78 -329 82 l-218 4 0 -336z
m313 207 c55 -5 74 -11 98 -34 41 -38 42 -105 0 -151 l-28 -32 -109 -1 -109 0
-3 99 c-1 55 0 106 2 113 6 14 45 16 149 6z"/>
<path d="M1735 1537 c-3 -7 -4 -156 -3 -332 l3 -320 283 -3 282 -2 0 60 0 60
-199 0 -199 0 -6 26 c-4 15 -4 51 0 80 l6 54 164 0 164 0 0 60 0 60 -165 0
c-189 0 -182 -4 -169 88 l9 57 175 2 c96 1 181 2 188 3 8 0 12 19 12 60 l0 60
-270 0 c-208 0 -272 -3 -275 -13z"/>
<path d="M2490 1216 l0 -336 80 0 79 0 3 93 3 92 74 5 c66 4 75 3 88 -15 7
-11 37 -54 66 -95 l52 -75 88 -3 c48 -1 87 1 87 5 0 4 -25 41 -55 81 -30 40
-62 87 -71 104 -15 29 -15 32 1 41 50 28 95 82 111 133 15 46 16 61 5 109 -16
71 -62 132 -126 164 -48 25 -56 26 -267 29 l-218 4 0 -336z m393 193 c84 -39
70 -173 -20 -199 -21 -6 -76 -10 -123 -8 l-85 3 -3 99 c-1 55 0 106 3 114 4
12 24 14 103 10 53 -3 110 -11 125 -19z"/>
<path d="M3300 1357 c0 -170 8 -267 27 -331 9 -31 75 -97 117 -116 166 -77
380 -38 449 82 38 66 47 132 47 353 l0 205 -79 0 -80 0 -3 -222 c-3 -251 -10
-276 -78 -310 -71 -36 -187 -9 -213 50 -8 17 -14 108 -17 252 l-5 225 -82 3
-83 3 0 -194z"/>
<path d="M4546 1071 c-10 -11 -15 -25 -11 -30 3 -6 1 -11 -4 -11 -6 0 -11 5
-11 10 0 6 -35 -17 -77 -51 -43 -33 -89 -69 -103 -80 -13 -10 -28 -19 -33 -19
-4 0 -6 -4 -3 -9 3 -5 -1 -14 -9 -21 -13 -11 -14 -10 -9 6 7 18 6 18 -12 3
-59 -48 -282 -136 -400 -159 -93 -17 -249 -29 -477 -35 -235 -7 -441 -31 -652
-76 -436 -93 -584 -122 -715 -140 -80 -10 -174 -24 -210 -29 -122 -18 -375
-40 -605 -52 l-230 -13 70 -27 c39 -15 97 -34 130 -43 108 -28 461 -36 1460
-32 1068 3 1004 0 1205 74 229 85 440 254 575 463 56 87 104 174 108 196 1 11
6 25 11 32 4 7 5 16 2 19 -3 3 2 12 12 19 9 7 14 15 11 18 -3 3 -14 -3 -23
-13z m-196 -216 c0 -2 -9 -3 -19 -2 -11 0 -18 5 -15 9 4 6 34 0 34 -7z m-145
-45 c-3 -5 -12 -10 -18 -10 -7 0 -6 4 3 10 19 12 23 12 15 0z m30 -20 c3 -6
-1 -7 -9 -4 -18 7 -21 14 -7 14 6 0 13 -4 16 -10z m138 -35 c-3 -9 -8 -14 -10
-11 -3 3 -2 9 2 15 9 16 15 13 8 -4z m-42 -18 c-10 -9 -11 -8 -5 6 3 10 9 15
12 12 3 -3 0 -11 -7 -18z"/>
</g>
</svg>
